<?xml version="1.0" standalone="no"?>
<!DOCTYPE svg PUBLIC "-//W3C//DTD SVG 20010904//EN"
 "http://www.w3.org/TR/2001/REC-SVG-20010904/DTD/svg10.dtd">
<svg version="1.0" xmlns="http://www.w3.org/2000/svg"
 width="782.000000pt" height="145.000000pt" viewBox="0 0 782.000000 145.000000"
 preserveAspectRatio="xMidYMid meet">

<g transform="translate(0.000000,145.000000) scale(0.100000,-0.100000)"
fill="#30077a" stroke="none">
<path d="M0 725 l0 -725 3910 0 3910 0 0 725 0 725 -3910 0 -3910 0 0 -725z
m1840 331 c17 -14 38 -26 46 -26 34 0 65 -104 46 -158 -7 -19 -7 -33 -1 -39
13 -13 0 -63 -17 -70 -8 -3 -14 -11 -14 -18 0 -8 -11 -27 -25 -43 -14 -17 -25
-41 -25 -55 0 -14 -10 -41 -22 -61 -21 -32 -27 -35 -70 -36 l-48 0 16 -33 c14
-30 14 -38 -1 -90 l-16 -57 -155 0 c-172 0 -167 -2 -138 70 20 50 53 74 144
105 39 13 80 35 90 47 27 32 25 74 -5 110 -14 16 -25 36 -25 44 0 8 -5 14 -10
14 -16 0 -33 53 -22 70 5 8 6 24 1 35 -18 47 -2 129 34 170 50 58 161 69 217
21z m720 -187 c26 -9 34 -9 41 2 12 21 21 -10 17 -62 -4 -43 -4 -43 -15 -18
-27 63 -107 90 -137 47 -21 -29 -5 -54 55 -88 83 -46 108 -69 115 -104 16 -88
-76 -149 -175 -115 -24 8 -35 8 -46 -1 -13 -11 -15 -3 -15 56 l0 69 20 -40
c33 -67 96 -93 140 -57 37 30 21 63 -49 101 -72 38 -111 81 -111 122 0 78 73
118 160 88z m1115 -23 c21 -16 46 -49 57 -74 38 -85 1 -190 -80 -226 -27 -12
-39 -23 -35 -33 7 -19 56 -43 88 -43 14 0 25 -4 25 -10 0 -15 -93 -12 -133 5
-19 8 -43 25 -54 38 -10 12 -32 29 -49 36 -66 27 -104 88 -104 167 0 52 16 88
57 126 40 38 70 48 135 45 43 -2 64 -10 93 -31z m419 -46 c10 -25 24 -58 31
-75 7 -16 16 -41 20 -55 11 -37 55 -112 73 -127 14 -10 2 -12 -68 -12 -61 0
-79 3 -62 9 26 11 26 8 7 54 -15 36 -16 36 -74 36 -52 0 -59 -2 -69 -25 -18
-39 -15 -52 16 -63 23 -9 19 -11 -35 -11 l-62 -1 22 23 c13 12 42 67 66 122
100 229 90 211 104 189 7 -10 21 -39 31 -64z m-1145 18 l-1 -53 -14 33 c-16
36 -47 52 -100 52 l-34 0 0 -70 c0 -49 4 -70 13 -70 21 0 34 14 50 50 15 35
15 34 15 -60 0 -81 -1 -91 -11 -69 -17 37 -37 59 -54 59 -11 0 -13 -14 -11
-67 l3 -68 37 -3 c49 -4 96 22 113 61 l14 32 0 -35 c1 -83 6 -80 -158 -79 -80
0 -139 3 -131 6 34 12 40 36 40 163 0 127 -6 151 -40 163 -8 3 49 6 128 6
l142 1 -1 -52z m199 20 c15 -17 34 -43 44 -57 9 -14 34 -46 57 -71 l40 -45 1
91 c0 85 -2 92 -22 102 -19 9 -14 11 37 11 55 1 58 0 35 -12 -25 -12 -25 -14
-30 -177 l-5 -164 -99 125 c-54 68 -105 131 -112 139 -12 12 -14 -4 -14 -107
l0 -121 28 -10 c23 -9 17 -10 -38 -11 -53 0 -61 2 -45 11 33 19 35 28 35 160
0 125 0 127 -26 147 l-27 21 57 0 c52 0 60 -3 84 -32z m1352 10 c58 -30 85
-76 85 -148 0 -72 -27 -118 -85 -147 -37 -19 -60 -23 -144 -23 -83 0 -97 2
-83 13 16 11 17 30 15 162 l-3 149 -25 7 c-14 4 25 7 85 8 96 1 117 -2 155
-21z m259 0 c62 -155 79 -193 86 -191 5 1 28 49 53 107 l44 106 72 0 c64 0 68
-2 46 -13 -25 -12 -25 -14 -28 -159 l-3 -146 28 -10 c23 -8 9 -11 -67 -11 -83
-1 -92 1 -70 12 25 12 25 15 28 147 1 74 -1 131 -4 127 -4 -4 -33 -68 -63
-143 -31 -75 -60 -136 -66 -136 -10 0 -93 185 -95 212 0 8 -9 26 -20 40 l-20
25 3 -130 c2 -127 2 -130 27 -142 23 -11 19 -13 -40 -12 -56 0 -61 2 -37 11
l28 10 -3 151 -3 151 -25 7 c-16 4 2 7 48 8 66 1 73 -1 81 -21z m499 10 l-28
-10 0 -148 0 -148 28 -10 c21 -8 8 -11 -68 -11 -83 -1 -92 1 -70 12 25 13 25
13 25 157 0 144 0 144 -25 157 -22 11 -13 13 70 12 76 0 89 -3 68 -11z m219
-71 c34 -45 71 -91 83 -102 l21 -19 -3 89 c-3 84 -5 90 -28 102 -23 12 -20 13
34 13 57 0 58 0 37 -17 -19 -17 -21 -29 -23 -178 l-3 -160 -108 135 c-60 74
-113 137 -118 138 -11 4 -12 -208 -1 -225 4 -7 19 -16 32 -22 20 -8 13 -10
-40 -10 -54 0 -61 2 -42 11 22 11 22 14 20 157 -3 144 -3 146 -28 158 -23 12
-19 13 40 13 l66 0 61 -83z m-3430 -160 c12 -20 39 -27 52 -14 13 13 27 1 33
-28 2 -11 12 -21 23 -23 29 -6 41 -20 28 -33 -13 -13 -6 -39 16 -56 15 -12 15
-14 0 -25 -22 -18 -29 -44 -16 -57 13 -13 1 -27 -28 -33 -11 -2 -21 -12 -23
-23 -6 -29 -20 -41 -33 -28 -12 12 -49 6 -49 -8 0 -5 -9 -9 -20 -9 -11 0 -20
4 -20 9 0 14 -37 20 -49 8 -13 -13 -27 -1 -33 28 -2 11 -12 21 -23 23 -29 6
-41 20 -28 33 13 13 6 39 -16 57 -15 11 -15 13 0 25 22 17 29 43 16 56 -13 13
-1 27 28 33 11 2 21 12 23 23 6 29 20 41 33 28 13 -13 40 -6 52 14 4 7 12 13
17 13 5 0 13 -6 17 -13z"/>
<path d="M3523 840 c-32 -29 -46 -84 -41 -163 5 -112 53 -162 119 -127 44 24
66 116 50 206 -17 91 -78 131 -128 84z"/>
<path d="M3998 710 l-25 -55 45 -3 c24 -2 46 -1 48 1 2 2 -7 28 -20 58 l-24
54 -24 -55z"/>
<path d="M4370 716 c0 -74 3 -141 6 -150 10 -25 51 -19 86 13 31 27 32 31 32
107 0 109 -31 164 -91 164 l-33 0 0 -134z"/>
<path d="M1969 521 c-20 -20 -29 -39 -29 -61 0 -43 47 -90 90 -90 43 0 90 47
90 90 0 43 -47 90 -90 90 -22 0 -41 -9 -61 -29z m81 -47 c11 -12 10 -18 -3
-32 -16 -15 -18 -15 -34 0 -13 14 -14 20 -3 32 7 9 16 16 20 16 4 0 13 -7 20
-16z"/>
</g>
</svg>
